<svg xmlns="http://www.w3.org/2000/svg" xmlns:xlink="http://www.w3.org/1999/xlink" width="67" height="67" viewBox="0 0 67 67">
  <defs>
    <filter id="Rectangle_2087" x="0" y="0" width="67" height="67" filterUnits="userSpaceOnUse">
      <feOffset dy="3" input="SourceAlpha"/>
      <feGaussianBlur stdDeviation="3" result="blur"/>
      <feFlood flood-opacity="0.161"/>
      <feComposite operator="in" in2="blur"/>
      <feComposite in="SourceGraphic"/>
    </filter>
  </defs>
  <g id="Component_26_1" data-name="Component 26 – 1" transform="translate(9 6)">
    <g transform="matrix(1, 0, 0, 1, -9, -6)" filter="url(#Rectangle_2087)">
      <rect id="Rectangle_2087-2" data-name="Rectangle 2087" width="49" height="49" rx="24.5" transform="translate(9 6)" fill="#fff"/>
    </g>
    <path id="Path_14465" data-name="Path 14465" d="M24.187,5.526a1.824,1.824,0,0,0-2.563,0l-6.768,6.768L8.11,5.526A1.812,1.812,0,0,0,5.548,8.088l6.746,6.768L5.526,21.6a1.824,1.824,0,0,0,0,2.563,1.851,1.851,0,0,0,2.585,0l6.746-6.746L21.6,24.165a1.8,1.8,0,0,0,1.292.526A1.807,1.807,0,0,0,24.187,21.6l-6.768-6.746L24.165,8.11A1.831,1.831,0,0,0,24.187,5.526Z" transform="translate(10 10)" fill="#00b5ee"/>
  </g>
</svg>
