<svg xmlns="http://www.w3.org/2000/svg" width="30" height="30" viewBox="0 0 30 30">
  <g id="Group_17708" data-name="Group 17708" transform="translate(-66 -742)">
    <rect id="Rectangle_2044" data-name="Rectangle 2044" width="30" height="30" transform="translate(66 742)" fill="none"/>
    <g id="Group_17707" data-name="Group 17707" transform="translate(68.483 745.394)">
      <path id="Path_14443" data-name="Path 14443" d="M10.376.606H1.552A1.034,1.034,0,0,0,.517,1.638v8.826A1.034,1.034,0,0,0,1.552,11.5h8.824a1.034,1.034,0,0,0,1.035-1.032V1.641A1.033,1.033,0,0,0,10.376.606ZM9.341,9.432H2.587V2.679H9.338V9.432Z" transform="translate(0 0)" fill="#7646f6"/>
      <path id="Path_14444" data-name="Path 14444" d="M15.133.606H6.306A1.032,1.032,0,0,0,5.274,1.638v8.826A1.032,1.032,0,0,0,6.306,11.5h8.826a1.032,1.032,0,0,0,1.032-1.032V1.641A1.033,1.033,0,0,0,15.133.606ZM14.1,9.432H7.342V2.679H14.1V9.432Z" transform="translate(7.552 0)" fill="#7646f6"/>
      <path id="Path_14445" data-name="Path 14445" d="M10.376,5.184H1.552A1.036,1.036,0,0,0,.517,6.219v8.824a1.034,1.034,0,0,0,1.035,1.032h8.824a1.034,1.034,0,0,0,1.035-1.032V6.219A1.033,1.033,0,0,0,10.376,5.184ZM9.341,14.008H2.587V7.254H9.338v6.754Z" transform="translate(0 7.268)" fill="#7646f6"/>
      <path id="Path_14446" data-name="Path 14446" d="M15.133,5.184H6.306A1.034,1.034,0,0,0,5.274,6.219v8.824a1.032,1.032,0,0,0,1.032,1.032h8.826a1.032,1.032,0,0,0,1.032-1.032V6.219A1.033,1.033,0,0,0,15.133,5.184ZM14.1,14.008H7.342V7.254H14.1v6.754Z" transform="translate(7.552 7.268)" fill="#7646f6"/>
    </g>
  </g>
</svg>
