<svg xmlns="http://www.w3.org/2000/svg" width="30" height="30" viewBox="0 0 30 30">
  <g id="Group_17709" data-name="Group 17709" transform="translate(-136 -742)">
    <rect id="Rectangle_2073" data-name="Rectangle 2073" width="30" height="30" transform="translate(136 742)" fill="none"/>
    <path id="Path_14447" data-name="Path 14447" d="M37.89,28.593c-2.968-3.062-2.86-7.64-2.859-7.686h0v-.068l-1,.034-1-.034v.068h0c0,.046.109,4.624-2.859,7.686-1.824,1.882-4.459,2.836-7.833,2.836v2c3.374,0,6.009.954,7.833,2.836,2.968,3.062,2.86,7.641,2.859,7.687h0v.068l1.012-.035.984.035v-.068h0c0-.046-.109-4.625,2.859-7.687,1.824-1.882,4.459-2.836,7.833-2.836v-2C42.349,31.429,39.714,30.475,37.89,28.593Zm-1.451,6.295a11.527,11.527,0,0,0-2.409,3.817,11.526,11.526,0,0,0-2.409-3.817,10.589,10.589,0,0,0-3.691-2.459,10.589,10.589,0,0,0,3.692-2.459,11.526,11.526,0,0,0,2.409-3.817,11.527,11.527,0,0,0,2.409,3.817,10.589,10.589,0,0,0,3.692,2.459,10.591,10.591,0,0,0-3.691,2.459Z" transform="translate(116.662 724.161)" fill="#afadad"/>
  </g>
</svg>
