<svg xmlns="http://www.w3.org/2000/svg" width="30" height="30" viewBox="0 0 30 30">
  <g id="Group_17723" data-name="Group 17723" transform="translate(-203 -51)">
    <rect id="Rectangle_2073" data-name="Rectangle 2073" width="30" height="30" transform="translate(203 51)" fill="none"/>
    <g id="Group_17722" data-name="Group 17722" transform="translate(202 -478.396)">
      <path id="Path_14468" data-name="Path 14468" d="M8.448,534.4A5.082,5.082,0,0,0,3,539.666c0,6.665,7.027,8.309,12.034,14.906,5.007-6.6,12.034-8.241,12.034-14.906a5.082,5.082,0,0,0-5.448-5.269,7.27,7.27,0,0,0-6.586,4.851A7.27,7.27,0,0,0,8.448,534.4Zm1.821,2.789a5.259,5.259,0,0,1,4.765,3.51,5.26,5.26,0,0,1,4.765-3.51A3.677,3.677,0,0,1,23.74,541c0,4.822-5.084,6.011-8.707,10.784C11.412,547.01,6.328,545.82,6.328,541a3.677,3.677,0,0,1,3.942-3.812Z" fill="#afadad"/>
    </g>
  </g>
</svg>
