<svg xmlns="http://www.w3.org/2000/svg" width="30" height="30" viewBox="0 0 30 30">
  <g id="Group_17712" data-name="Group 17712" transform="translate(-297 -742)">
    <rect id="Rectangle_2075" data-name="Rectangle 2075" width="30" height="30" transform="translate(297 742)" fill="none"/>
    <g id="Group_17711" data-name="Group 17711" transform="translate(-2413 1338)">
      <path id="Path_14452" data-name="Path 14452" d="M18.669,15.337A4.669,4.669,0,1,0,14,10.669,4.669,4.669,0,0,0,18.669,15.337Zm0-7.781a3.112,3.112,0,1,1-3.112,3.112A3.112,3.112,0,0,1,18.669,7.556Z" transform="translate(2706.112 -597)" fill="#afadad"/>
      <path id="Path_14453" data-name="Path 14453" d="M20.024,20H15.538A5.545,5.545,0,0,0,10,25.538a3.8,3.8,0,0,0,3.8,3.8h7.964a3.8,3.8,0,0,0,3.8-3.8A5.544,5.544,0,0,0,20.024,20Zm1.738,7.781H13.8a2.246,2.246,0,0,1-2.242-2.243,3.985,3.985,0,0,1,3.981-3.981h4.486a3.987,3.987,0,0,1,3.981,3.982,2.246,2.246,0,0,1-2.243,2.242Z" transform="translate(2707 -600.107)" fill="#afadad"/>
    </g>
  </g>
</svg>
