<svg id="Component_26_1" data-name="Component 26 – 1" xmlns="http://www.w3.org/2000/svg" width="34" height="34" viewBox="0 0 34 34">
  <path id="Path_14609" data-name="Path 14609" d="M17,0A17,17,0,1,1,0,17,17,17,0,0,1,17,0Z" fill="#7646f6"/>
  <g id="Layer_2" data-name="Layer 2" transform="translate(10 9.828)">
    <path id="Path_14476" data-name="Path 14476" d="M11.58,6.408a.441.441,0,0,0-.441.441V9.784a2.358,2.358,0,0,1-2.355,2.355H4.237A2.358,2.358,0,0,1,1.882,9.784V5.237A2.358,2.358,0,0,1,4.237,2.882H7.171a.441.441,0,1,0,0-.882H4.237A3.24,3.24,0,0,0,1,5.237V9.784a3.24,3.24,0,0,0,3.237,3.237H8.784A3.24,3.24,0,0,0,12.02,9.784V6.849A.441.441,0,0,0,11.58,6.408Z" transform="translate(0 -0.463)" fill="#fff"/>
    <path id="Path_14477" data-name="Path 14477" d="M11,5.945V7.708a.441.441,0,0,0,.441.441H13.2a.441.441,0,0,0,.312-.129l3.967-3.967A1.688,1.688,0,0,0,15.1,1.666L11.129,5.633A.441.441,0,0,0,11,5.945Zm4.72-3.656a.806.806,0,1,1,1.14,1.14l-.129.129-1.14-1.14ZM11.882,6.128l3.086-3.086,1.14,1.14L13.022,7.268h-1.14Z" transform="translate(-5.592 0)" fill="#fff"/>
  </g>
</svg>
