<svg id="Layer_2" data-name="Layer 2" xmlns="http://www.w3.org/2000/svg" width="18.303" height="18.303" viewBox="0 0 18.303 18.303">
  <path id="Path_14476" data-name="Path 14476" d="M18.007,9.086a.709.709,0,0,0-.709.709v4.717A3.79,3.79,0,0,1,13.512,18.3H6.2a3.79,3.79,0,0,1-3.786-3.786V7.2A3.79,3.79,0,0,1,6.2,3.417h4.717a.709.709,0,1,0,0-1.417H6.2A5.209,5.209,0,0,0,1,7.2v7.309a5.209,5.209,0,0,0,5.2,5.2h7.309a5.209,5.209,0,0,0,5.2-5.2V9.795A.709.709,0,0,0,18.007,9.086Z" transform="translate(-1 -1.413)" fill="#afadad"/>
  <path id="Path_14477" data-name="Path 14477" d="M11,8.845V11.68a.709.709,0,0,0,.709.709h2.835a.709.709,0,0,0,.5-.208L21.422,5.8a2.713,2.713,0,0,0-3.837-3.837L11.208,8.344A.709.709,0,0,0,11,8.845Zm7.587-5.877A1.3,1.3,0,1,1,20.42,4.8l-.208.207L18.38,3.176Zm-6.17,6.17,4.96-4.96L19.21,6.01l-4.96,4.96H12.417Z" transform="translate(-3.914 -1.172)" fill="#afadad"/>
</svg>
