<svg xmlns="http://www.w3.org/2000/svg" xmlns:xlink="http://www.w3.org/1999/xlink" width="50" height="50" viewBox="0 0 50 50">
  <defs>
    <filter id="Ellipse_30" x="0" y="0" width="50" height="50" filterUnits="userSpaceOnUse">
      <feOffset dy="3" input="SourceAlpha"/>
      <feGaussianBlur stdDeviation="3" result="blur"/>
      <feFlood flood-opacity="0.161"/>
      <feComposite operator="in" in2="blur"/>
      <feComposite in="SourceGraphic"/>
    </filter>
  </defs>
  <g id="Component_28_1" data-name="Component 28 – 1" transform="translate(9 6)">
    <g transform="matrix(1, 0, 0, 1, -9, -6)" filter="url(#Ellipse_30)">
      <circle id="Ellipse_30-2" data-name="Ellipse 30" cx="16" cy="16" r="16" transform="translate(9 6)" fill="#7646f6"/>
    </g>
    <path id="Path_14480" data-name="Path 14480" d="M19.869,12.825l-1.363-1.363a1.319,1.319,0,0,0-1.849,0l-2.633,2.615a4.992,4.992,0,0,0-3.212-2.727A3.573,3.573,0,0,0,12.1,8.6a3.6,3.6,0,1,0-5.92,2.745A5.042,5.042,0,0,0,2.5,16.206v1.625a.522.522,0,0,0,.523.523H10.1l-.6,2.82a.533.533,0,0,0,.149.486.555.555,0,0,0,.374.149.237.237,0,0,0,.112-.019l3.138-.672a.532.532,0,0,0,.261-.149l6.331-6.331a1.3,1.3,0,0,0,.374-.915A1.258,1.258,0,0,0,19.869,12.825Zm-8.05,4.931L16.078,13.5,17.8,15.216l-4.258,4.258ZM8.5,6.046a2.54,2.54,0,1,1-2.54,2.54A2.543,2.543,0,0,1,8.5,6.046ZM3.565,16.206a4,4,0,0,1,4-4H9.429A4.017,4.017,0,0,1,13.2,14.9l-2.409,2.391H3.565Zm7.583,2.372,1.587,1.587-2.017.43ZM19.1,13.909l-.56.56-1.718-1.718.56-.56a.26.26,0,0,1,.355,0L19.1,13.554a.26.26,0,0,1,.075.168A.222.222,0,0,1,19.1,13.909Z" transform="translate(4.5 3)" fill="#fff"/>
  </g>
</svg>
