<svg xmlns="http://www.w3.org/2000/svg" xmlns:xlink="http://www.w3.org/1999/xlink" width="50" height="50" viewBox="0 0 50 50">
  <defs>
    <filter id="Ellipse_29" x="0" y="0" width="50" height="50" filterUnits="userSpaceOnUse">
      <feOffset dy="3" input="SourceAlpha"/>
      <feGaussianBlur stdDeviation="3" result="blur"/>
      <feFlood flood-opacity="0.161"/>
      <feComposite operator="in" in2="blur"/>
      <feComposite in="SourceGraphic"/>
    </filter>
  </defs>
  <g id="Component_27_1" data-name="Component 27 – 1" transform="translate(9 6)">
    <g transform="matrix(1, 0, 0, 1, -9, -6)" filter="url(#Ellipse_29)">
      <circle id="Ellipse_29-2" data-name="Ellipse 29" cx="16" cy="16" r="16" transform="translate(9 6)" fill="#7646f6"/>
    </g>
    <g id="Group_17742" data-name="Group 17742" transform="translate(-24.995 -216.995)">
      <g id="Group_17741" data-name="Group 17741" transform="translate(32.995 224.995)">
        <path id="Path_14478" data-name="Path 14478" d="M43.262,226.534A1.68,1.68,0,0,0,41.642,225h-.024c-.153,0-.306,0-.459.006h0a1.675,1.675,0,0,0-1.613,1.516c-.013.094-.022.194-.03.291a.561.561,0,0,1-.353.473,5,5,0,0,0-.49.2h0a.555.555,0,0,1-.592-.079l-.214-.173a1.679,1.679,0,0,0-2.233.058l-.017.017c-.107.11-.215.218-.32.329v0a1.674,1.674,0,0,0-.069,2.212c.057.076.122.152.184.227a.559.559,0,0,1,.086.584,4.78,4.78,0,0,0-.207.486v0a.556.556,0,0,1-.474.363l-.274.029A1.68,1.68,0,0,0,33,233.157c0,.008,0,.016,0,.024,0,.153,0,.306.006.459v0a1.675,1.675,0,0,0,1.516,1.613c.094.013.194.022.291.03a.561.561,0,0,1,.473.353,5,5,0,0,0,.2.49v0a.555.555,0,0,1-.079.592l-.173.214a1.679,1.679,0,0,0,.058,2.233l.017.017c.11.107.218.215.329.32h0a1.674,1.674,0,0,0,2.212.069c.076-.057.152-.122.227-.184a.559.559,0,0,1,.584-.086,4.779,4.779,0,0,0,.486.207h0a.556.556,0,0,1,.363.474l.029.274a1.68,1.68,0,0,0,1.62,1.538h.024c.153,0,.306,0,.459-.006h0a1.675,1.675,0,0,0,1.613-1.516c.013-.094.022-.194.03-.291a.561.561,0,0,1,.353-.473,5,5,0,0,0,.49-.2h0a.555.555,0,0,1,.592.079l.214.173a1.679,1.679,0,0,0,2.233-.058l.017-.017c.107-.11.215-.218.32-.329v0a1.674,1.674,0,0,0,.069-2.212c-.057-.076-.122-.152-.184-.227a.559.559,0,0,1-.086-.584,4.778,4.778,0,0,0,.207-.486v0a.556.556,0,0,1,.474-.363l.274-.029a1.68,1.68,0,0,0,1.538-1.62c0-.008,0-.016,0-.024,0-.153,0-.306-.006-.459v0a1.675,1.675,0,0,0-1.516-1.613c-.094-.013-.194-.022-.291-.03a.561.561,0,0,1-.473-.353,5,5,0,0,0-.2-.49v0a.555.555,0,0,1,.079-.592l.173-.214a1.679,1.679,0,0,0-.058-2.233l-.017-.017c-.11-.107-.218-.215-.329-.32h0a1.674,1.674,0,0,0-2.212-.069c-.076.057-.152.122-.227.184a.559.559,0,0,1-.584.086,4.78,4.78,0,0,0-.486-.207h0a.556.556,0,0,1-.363-.474Zm-1.116.094.031.3a1.672,1.672,0,0,0,1.094,1.41,3.639,3.639,0,0,1,.371.157l.013.007a1.679,1.679,0,0,0,1.794-.238l.214-.174a.556.556,0,0,1,.737.019c.1.1.2.2.3.3a.56.56,0,0,1,.012.737l-.188.231a1.672,1.672,0,0,0-.223,1.771,3.638,3.638,0,0,1,.15.374l.005.014a1.68,1.68,0,0,0,1.437,1.1l.274.029a.555.555,0,0,1,.507.534c0,.141,0,.282.006.423a.56.56,0,0,1-.513.53l-.3.031a1.672,1.672,0,0,0-1.41,1.094,3.625,3.625,0,0,1-.157.371.143.143,0,0,0-.007.013,1.679,1.679,0,0,0,.238,1.794l.174.214a.556.556,0,0,1-.019.737c-.1.1-.2.2-.3.3a.56.56,0,0,1-.737.012l-.231-.188a1.672,1.672,0,0,0-1.771-.223,3.629,3.629,0,0,1-.374.15l-.014.005a1.68,1.68,0,0,0-1.1,1.437l-.029.274a.555.555,0,0,1-.534.507c-.141,0-.282,0-.423.006a.56.56,0,0,1-.53-.512l-.031-.3a1.672,1.672,0,0,0-1.094-1.41,3.632,3.632,0,0,1-.371-.157l-.013-.007a1.679,1.679,0,0,0-1.794.238l-.214.174a.556.556,0,0,1-.737-.019c-.1-.1-.2-.2-.3-.3a.56.56,0,0,1-.012-.737l.188-.231a1.672,1.672,0,0,0,.223-1.771,3.635,3.635,0,0,1-.15-.374l-.005-.014a1.68,1.68,0,0,0-1.437-1.1l-.274-.029a.555.555,0,0,1-.507-.534c0-.141,0-.282-.006-.423a.56.56,0,0,1,.512-.53l.3-.031a1.672,1.672,0,0,0,1.41-1.094,3.626,3.626,0,0,1,.157-.371.146.146,0,0,0,.007-.013,1.679,1.679,0,0,0-.238-1.794l-.174-.214a.556.556,0,0,1,.019-.737c.1-.1.2-.2.3-.3a.56.56,0,0,1,.737-.012l.231.188a1.672,1.672,0,0,0,1.771.223,3.629,3.629,0,0,1,.374-.15l.014-.005a1.68,1.68,0,0,0,1.1-1.437l.029-.274a.555.555,0,0,1,.534-.507c.141,0,.282,0,.423-.006A.56.56,0,0,1,42.146,226.628Z" transform="translate(-32.995 -224.995)" fill="#fff" fill-rule="evenodd"/>
        <path id="Path_14479" data-name="Path 14479" d="M44.921,233a3.921,3.921,0,1,0,3.921,3.921A3.923,3.923,0,0,0,44.921,233Zm0,1.12a2.8,2.8,0,1,1-2.8,2.8A2.8,2.8,0,0,1,44.921,234.12Z" transform="translate(-36.516 -228.516)" fill="#fff" fill-rule="evenodd"/>
      </g>
    </g>
  </g>
</svg>
